<svg width="680" height="316" viewBox="0 0 680 316" fill="none" xmlns="http://www.w3.org/2000/svg">
<path d="M344.986 193.772H331.289V277.148H370.713V264.88H344.986V193.772Z" fill="#EF3B2D"/>
<path d="M419.07 229.147C417.322 226.368 414.842 224.185 411.626 222.596C408.411 221.008 405.174 220.214 401.919 220.214C397.708 220.214 393.859 220.988 390.365 222.536C386.87 224.084 383.873 226.211 381.372 228.909C378.871 231.609 376.924 234.726 375.536 238.258C374.145 241.793 373.451 245.506 373.451 249.396C373.451 253.367 374.145 257.098 375.536 260.591C376.924 264.087 378.871 267.184 381.372 269.882C383.873 272.582 386.87 274.706 390.365 276.254C393.858 277.802 397.708 278.577 401.919 278.577C405.174 278.577 408.411 277.782 411.626 276.195C414.842 274.608 417.323 272.424 419.07 269.644V277.148H432.053V221.644H419.07V229.147ZM417.88 256.184C417.085 258.329 415.974 260.195 414.545 261.783C413.115 263.371 411.388 264.642 409.363 265.594C407.338 266.547 405.094 267.023 402.633 267.023C400.171 267.023 397.947 266.547 395.962 265.594C393.977 264.641 392.271 263.371 390.842 261.783C389.412 260.195 388.319 258.329 387.566 256.184C386.81 254.041 386.435 251.777 386.435 249.396C386.435 247.013 386.81 244.75 387.566 242.606C388.319 240.463 389.412 238.598 390.842 237.009C392.271 235.422 393.978 234.15 395.962 233.197C397.947 232.244 400.171 231.768 402.633 231.768C405.094 231.768 407.338 232.244 409.363 233.197C411.388 234.151 413.115 235.422 414.545 237.009C415.974 238.598 417.085 240.463 417.88 242.606C418.672 244.75 419.071 247.013 419.071 249.396C419.07 251.777 418.672 254.041 417.88 256.184Z" fill="#EF3B2D"/>
<path d="M524.597 229.147C522.85 226.368 520.369 224.185 517.153 222.596C513.938 221.008 510.702 220.214 507.447 220.214C503.236 220.214 499.386 220.988 495.892 222.536C492.398 224.084 489.401 226.211 486.899 228.909C484.398 231.609 482.451 234.726 481.063 238.258C479.672 241.793 478.979 245.506 478.979 249.396C478.979 253.367 479.672 257.098 481.063 260.591C482.451 264.087 484.398 267.184 486.899 269.882C489.401 272.582 492.397 274.706 495.892 276.254C499.385 277.802 503.236 278.577 507.447 278.577C510.702 278.577 513.938 277.782 517.153 276.195C520.369 274.608 522.851 272.424 524.597 269.644V277.148H537.58V221.644H524.597V229.147ZM523.406 256.184C522.612 258.329 521.5 260.195 520.071 261.783C518.641 263.371 516.915 264.642 514.89 265.594C512.864 266.547 510.62 267.023 508.159 267.023C505.697 267.023 503.474 266.547 501.489 265.594C499.503 264.641 497.797 263.371 496.368 261.783C494.938 260.195 493.846 258.329 493.092 256.184C492.336 254.041 491.961 251.777 491.961 249.396C491.961 247.013 492.336 244.75 493.092 242.606C493.845 240.463 494.938 238.598 496.368 237.009C497.797 235.422 499.504 234.15 501.489 233.197C503.474 232.244 505.697 231.768 508.159 231.768C510.62 231.768 512.864 232.244 514.89 233.197C516.915 234.151 518.641 235.422 520.071 237.009C521.5 238.598 522.612 240.463 523.406 242.606C524.199 244.75 524.597 247.013 524.597 249.396C524.597 251.777 524.199 254.041 523.406 256.184Z" fill="#EF3B2D"/>
<path d="M680.001 193.772H667.02V277.148H680.001V193.772Z" fill="#EF3B2D"/>
<path d="M442.297 277.148H455.279V234.418H477.553V221.645H442.297V277.148Z" fill="#EF3B2D"/>
<path d="M589.632 221.645L573.315 264.148L556.997 221.645H543.848L565.157 277.148H581.473L602.782 221.645H589.632Z" fill="#EF3B2D"/>
<path d="M631.095 220.217C615.196 220.217 602.613 233.282 602.613 249.397C602.613 267.212 614.792 278.577 632.758 278.577C642.814 278.577 649.234 274.732 657.076 266.359L648.305 259.573C648.3 259.579 641.686 268.265 631.808 268.265C620.327 268.265 615.494 259.009 615.494 254.22H658.564C660.827 235.884 648.772 220.217 631.095 220.217ZM615.528 244.573C615.628 243.505 617.123 230.528 630.991 230.528C644.859 230.528 646.544 243.503 646.641 244.573H615.528Z" fill="#EF3B2D"/>
<path d="M291.779 193.122C291.759 193.048 291.718 192.984 291.693 192.914C291.644 192.783 291.603 192.651 291.534 192.531C291.487 192.45 291.42 192.385 291.365 192.311C291.292 192.213 291.231 192.109 291.144 192.024C291.074 191.952 290.983 191.9 290.903 191.838C290.812 191.767 290.732 191.687 290.631 191.628C290.631 191.628 290.63 191.628 290.629 191.628C290.629 191.628 290.629 191.627 290.628 191.626L260.974 174.553C260.212 174.114 259.272 174.114 258.509 174.553L228.856 191.624C228.855 191.624 228.855 191.625 228.855 191.626C228.854 191.626 228.853 191.626 228.853 191.627C228.752 191.685 228.671 191.766 228.581 191.836C228.501 191.899 228.41 191.951 228.34 192.022C228.254 192.108 228.192 192.212 228.119 192.309C228.064 192.383 227.997 192.45 227.95 192.529C227.881 192.649 227.84 192.782 227.791 192.912C227.766 192.983 227.725 193.047 227.705 193.12C227.649 193.327 227.619 193.544 227.619 193.765V226.19L202.909 240.417V176.985C202.909 176.764 202.879 176.547 202.823 176.339C202.803 176.266 202.762 176.202 202.736 176.131C202.688 176.001 202.647 175.868 202.578 175.749C202.531 175.668 202.464 175.602 202.409 175.528C202.336 175.431 202.275 175.327 202.188 175.241C202.118 175.17 202.027 175.118 201.947 175.056C201.856 174.985 201.776 174.904 201.675 174.846C201.675 174.846 201.674 174.846 201.673 174.845C201.673 174.845 201.673 174.844 201.672 174.844L172.019 157.772C171.256 157.333 170.316 157.333 169.554 157.772L139.901 174.844C139.9 174.844 139.9 174.844 139.899 174.845C139.899 174.845 139.898 174.845 139.898 174.846C139.797 174.904 139.715 174.985 139.626 175.056C139.546 175.118 139.455 175.171 139.384 175.241C139.299 175.327 139.236 175.431 139.164 175.528C139.109 175.602 139.042 175.669 138.995 175.749C138.926 175.868 138.885 176.002 138.836 176.131C138.81 176.202 138.77 176.266 138.75 176.339C138.694 176.546 138.664 176.764 138.664 176.985V278.544C138.664 279.428 139.137 280.244 139.903 280.686L199.207 314.829C199.337 314.903 199.476 314.948 199.615 314.997C199.679 315.02 199.739 315.058 199.806 315.076C200.013 315.131 200.227 315.159 200.44 315.159C200.653 315.159 200.866 315.132 201.074 315.076C201.131 315.061 201.183 315.027 201.24 315.007C201.386 314.956 201.534 314.908 201.672 314.829L260.976 280.686C261.742 280.245 262.215 279.428 262.215 278.544V246.12L290.629 229.761C291.395 229.32 291.867 228.503 291.867 227.619V193.765C291.865 193.546 291.836 193.329 291.779 193.122ZM200.432 275.702L175.77 261.745L201.67 246.834C201.67 246.834 201.67 246.834 201.671 246.833L230.09 230.471L254.774 244.682L236.663 255.02L200.432 275.702ZM257.271 212.267V240.418L246.894 234.443L232.56 226.191V198.041L242.938 204.015L257.271 212.267ZM259.742 179.547L284.441 193.767L259.742 207.987L235.042 193.767L259.742 179.547ZM183.633 251.514L173.256 257.489V195.485L187.59 187.233L197.967 181.259V243.262L183.633 251.514ZM170.785 162.764L195.485 176.985L170.785 191.205L146.085 176.985L170.785 162.764ZM143.604 181.26L153.981 187.234L168.314 195.486V261.763C168.314 261.765 168.315 261.766 168.315 261.768C168.315 261.769 168.314 261.771 168.314 261.773C168.314 261.867 168.341 261.956 168.352 262.05C168.366 262.171 168.369 262.294 168.401 262.411C168.401 262.412 168.401 262.415 168.402 262.416C168.429 262.514 168.481 262.601 168.519 262.694C168.561 262.797 168.592 262.906 168.649 263.003C168.649 263.005 168.65 263.008 168.652 263.01C168.703 263.098 168.776 263.169 168.837 263.25C168.904 263.337 168.96 263.433 169.039 263.511C169.042 263.514 169.044 263.517 169.046 263.519C169.116 263.588 169.204 263.638 169.282 263.698C169.371 263.767 169.45 263.846 169.549 263.904C169.552 263.905 169.556 263.906 169.559 263.908C169.563 263.91 169.565 263.913 169.569 263.914L197.967 279.986V308.415L143.604 277.117V181.26H143.604ZM257.271 277.117L202.909 308.415V279.981L243.169 256.999L257.271 248.949V277.117ZM286.923 226.191L262.212 240.418V212.267L276.546 204.015L286.923 198.041V226.191Z" fill="#EF3B2D"/>
<path d="M26.6406 61.8106C26.6406 57.7044 30.0102 56.1244 35.5919 56.1244C43.5941 56.1244 53.7026 58.5469 61.7054 62.8642V38.1182C52.9659 34.6435 44.3315 33.2745 35.5919 33.2745C14.2155 33.2745 0 44.4366 0 63.0752C0 92.1369 40.0135 87.5043 40.0135 100.035C40.0135 104.878 35.8022 106.458 29.905 106.458C21.1655 106.458 10.0034 102.878 1.15797 98.0341V123.095C10.9511 127.308 20.8493 129.097 29.905 129.097C51.8072 129.097 66.8652 118.252 66.8652 99.4031C66.7601 68.0239 26.6406 73.6042 26.6406 61.8106ZM97.8231 12.2149L72.1301 17.6901L72.025 102.035C72.025 117.62 83.7135 129.097 99.2979 129.097C107.932 129.097 114.25 127.518 117.725 125.622V104.247C114.356 105.616 97.7179 110.459 97.7179 94.8748V57.4934H117.725V35.0648H97.7179L97.8231 12.2149ZM150.474 42.8566L148.788 35.0648H126.044V127.202H152.369V64.7595C158.581 56.6516 169.111 58.1257 172.376 59.2836V35.0648C169.006 33.8009 156.686 31.4843 150.474 42.8566ZM178.799 35.0648H205.229V127.202H178.799V35.0648ZM178.799 27.0619L205.229 21.3758V0L178.799 5.58105V27.0619ZM260.195 33.2745C249.876 33.2745 243.242 38.1182 239.557 41.4884L238.187 34.9597H215.022V157.738L241.347 152.158L241.452 122.358C245.243 125.096 250.824 128.992 260.09 128.992C278.939 128.992 296.103 113.829 296.103 80.4491C295.998 49.9118 278.623 33.2745 260.195 33.2745ZM253.878 105.826C247.665 105.826 243.979 103.615 241.452 100.877L241.347 61.8106C244.085 58.7572 247.875 56.6516 253.878 56.6516C263.46 56.6516 270.094 67.3916 270.094 81.1858C270.094 95.2961 263.565 105.826 253.878 105.826ZM379.079 81.5019C379.079 54.5452 366.021 33.2745 341.066 33.2745C316.004 33.2745 300.84 54.5459 300.84 81.2917C300.84 112.986 318.742 128.992 344.435 128.992C356.966 128.992 366.443 126.149 373.603 122.148V101.087C366.443 104.668 358.229 106.88 347.805 106.88C337.59 106.88 328.535 103.299 327.377 90.8738H378.869C378.869 89.5041 379.079 84.0289 379.079 81.5019ZM327.061 71.4986C327.061 59.5998 334.327 54.6503 340.961 54.6503C347.384 54.6503 354.228 59.5998 354.228 71.4986H327.061Z" fill="#6772E5"/>
</svg>
